<?xml version="1.0" encoding="UTF-8" standalone="no"?>
<svg
   xmlns:dc="http://purl.org/dc/elements/1.1/"
   xmlns:cc="http://creativecommons.org/ns#"
   xmlns:rdf="http://www.w3.org/1999/02/22-rdf-syntax-ns#"
   xmlns:svg="http://www.w3.org/2000/svg"
   xmlns="http://www.w3.org/2000/svg"
   xmlns:sodipodi="http://sodipodi.sourceforge.net/DTD/sodipodi-0.dtd"
   xmlns:inkscape="http://www.inkscape.org/namespaces/inkscape"
   width="250"
   height="60"
   id="svg2"
   version="1.1"
   inkscape:version="1.0 (4035a4fb49, 2020-05-01)"
   sodipodi:docname="copertina scienza per facebook.svg"
   inkscape:export-filename="C:\Users\Andrea\Dropbox\Documenti\Web\PhMe-logo.png"
   inkscape:export-xdpi="34.884842"
   inkscape:export-ydpi="34.884842">
  <sodipodi:namedview
     id="base"
     pagecolor="#ffffff"
     bordercolor="#666666"
     borderopacity="1.0"
     inkscape:pageopacity="0.0"
     inkscape:pageshadow="2"
     inkscape:zoom="6.3470345"
     inkscape:cx="129.21633"
     inkscape:cy="20.647044"
     inkscape:document-units="px"
     inkscape:current-layer="layer2"
     showgrid="false"
     inkscape:window-width="1366"
     inkscape:window-height="705"
     inkscape:window-x="-8"
     inkscape:window-y="-8"
     inkscape:window-maximized="1"
     showguides="true"
     inkscape:guide-bbox="true"
     fit-margin-top="0"
     fit-margin-left="0"
     fit-margin-right="0"
     fit-margin-bottom="0"
     inkscape:document-rotation="0" />
  <defs
     id="defs4">
    <rect
       x="126.64977"
       y="306.6315"
       width="38.769785"
       height="27.851857"
       id="rect993" />
  </defs>
  <metadata
     id="metadata7">
    <rdf:RDF>
      <cc:Work
         rdf:about="">
        <dc:format>image/svg+xml</dc:format>
        <dc:type
           rdf:resource="http://purl.org/dc/dcmitype/StillImage" />
        <dc:title></dc:title>
      </cc:Work>
    </rdf:RDF>
  </metadata>
  <g
     id="layer1"
     inkscape:groupmode="layer"
     inkscape:label="Layer 1"
     transform="translate(-62.869019,-300.39268)" />
  <g
     style="display:inline"
     inkscape:label="Layer"
     id="layer2"
     inkscape:groupmode="layer"
     transform="translate(-62.869019,-300.39268)">
    <text
       xml:space="preserve"
       id="text991"
       style="font-size:5.33333333px;line-height:1.25;font-family:Bahnschrift;-inkscape-font-specification:Bahnschrift;white-space:pre;shape-inside:url(#rect993);font-weight:normal;font-style:normal;font-stretch:normal;font-variant:normal;" />
    <g
       style="stroke-width:0.643966"
       transform="matrix(1.5528761,0,0,1.5528761,-12.5017,-169.60156)"
       id="g216">
      <ellipse
         style="fill:#55ddff;fill-opacity:1;fill-rule:evenodd;stroke:none;stroke-width:0.123781"
         id="path2996-7"
         transform="scale(1,-1)"
         cx="101.97191"
         cy="-320.93716"
         rx="14.245745"
         ry="14.174837" />
      <ellipse
         style="fill:#ffffff;fill-opacity:1;stroke:none;stroke-width:0.130949"
         id="path3798-4"
         transform="scale(1,-1)"
         cx="101.97191"
         cy="-322.48248"
         rx="13.032129"
         ry="12.967262" />
      <ellipse
         style="fill:#0088aa;fill-rule:evenodd;stroke:none;stroke-width:0.104661"
         id="path2996"
         cx="101.97191"
         cy="322.41266"
         rx="12.045294"
         ry="11.985339" />
      <ellipse
         style="fill:#ffffff;fill-opacity:1;stroke:none;stroke-width:0.110722"
         id="path3798"
         cx="101.9719"
         cy="321.10605"
         rx="11.019137"
         ry="10.964291" />
      <g
         style="font-style:normal;font-variant:normal;font-weight:normal;font-stretch:normal;letter-spacing:normal;word-spacing:normal;text-anchor:start;fill:#6f8a91;fill-opacity:1;stroke:#000000;stroke-width:0.281451;stroke-linecap:butt;stroke-linejoin:miter;stroke-miterlimit:4;stroke-dasharray:none;stroke-dashoffset:0;stroke-opacity:1"
         word-spacing="normal"
         letter-spacing="normal"
         font-size-adjust="none"
         font-stretch="normal"
         font-weight="normal"
         font-variant="normal"
         font-style="normal"
         stroke-miterlimit="10.433"
         xml:space="preserve"
         transform="matrix(0.44528117,0,0,-0.4430648,-108.85982,508.61772)"
         id="content"><path
           style="fill:#6f8a91;fill-opacity:1;stroke:none;stroke-width:0.281451;stroke-miterlimit:4;stroke-dasharray:none;stroke-opacity:1"
           inkscape:connector-curvature="0"
           id="path3006"
           d="m 475.39,412.92 0.72,0.07 0.71,0.09 0.69,0.11 0.67,0.14 0.66,0.15 0.64,0.18 0.63,0.2 0.61,0.21 0.59,0.23 0.58,0.26 0.55,0.26 0.54,0.29 0.51,0.3 0.5,0.31 0.47,0.33 0.45,0.34 0.43,0.36 0.41,0.37 0.38,0.37 0.36,0.4 0.33,0.4 0.31,0.41 0.28,0.42 0.25,0.42 0.23,0.44 0.19,0.44 0.17,0.45 0.14,0.45 0.11,0.46 0.08,0.47 0.05,0.46 0.01,0.47 c 0,5.19 -5.67,9.72 -13.25,10.32 v -1.1 c 6.88,-0.79 8.29,-5.37 8.29,-9.17 0,-2.98 -0.75,-8.31 -8.29,-9.2 v 18.37 1.1 2.79 c 0,1.69 0,2.39 4.74,2.39 h 1.64 v 1.55 c -1.78,-0.16 -6.38,-0.16 -8.41,-0.16 -2.04,0 -6.68,0 -8.48,0.16 v -1.55 h 1.66 c 4.73,0 4.73,-0.65 4.73,-2.39 v -2.79 -1.14 -18.29 c -7.08,0.94 -7.98,6.04 -7.98,9.11 0,2.6 0.5,8.18 7.98,9.18 v 1.14 c -7.63,-0.74 -12.95,-5.33 -12.95,-10.27 0,-5.12 5.51,-9.56 12.95,-10.31 v -2.78 c 0,-1.71 0,-2.39 -4.73,-2.39 h -1.66 v -1.55 c 1.8,0.16 6.39,0.16 8.42,0.16 2.05,0 6.69,0 8.47,-0.16 v 1.55 h -1.64 c -4.74,0 -4.74,0.64 -4.74,2.39 z" /></g>
      <rect
         transform="scale(-1,1)"
         y="310.5361"
         x="-120.52236"
         height="20.276152"
         width="0.89125937"
         id="rect977"
         style="opacity:0.99;fill:#216778;fill-opacity:1;stroke:none;stroke-width:1.24472" />
      <g
         transform="translate(-6,-1.0546766)"
         style="fill:#0044aa;stroke-width:0.643966"
         id="g1077">
        <g
           aria-label="
scienza 
comoda"
           id="text999"
           style="font-style:normal;font-variant:normal;font-weight:normal;font-stretch:normal;font-size:5.33333px;line-height:1.25;font-family:'Britannic Bold';-inkscape-font-specification:'Britannic Bold, ';fill:#6f8a91;stroke-width:0.643966">
          <path
             d="m 129.60892,319.56009 v -0.89843 h 0.36133 l 0.007,0.0618 q 0.0423,0.48502 0.0618,0.55013 0.0228,0.0618 0.17253,0.1595 0.29297,0.1888 0.65429,0.1888 0.29297,0 0.47852,-0.17578 0.1888,-0.17903 0.1888,-0.45898 0,-0.2474 -0.1237,-0.39388 -0.12695,-0.14323 -0.44596,-0.26693 l -0.32878,-0.12695 q -0.5306,-0.20508 -0.76823,-0.46224 -0.23763,-0.25391 -0.23763,-0.61849 0,-0.42969 0.3418,-0.70964 0.34505,-0.27995 0.87565,-0.27995 0.51758,0 1.07097,0.19857 v 0.8431 h -0.36133 v -0.0586 q -0.0195,-0.31901 -0.0521,-0.43946 -0.0325,-0.12369 -0.10416,-0.18229 -0.21159,-0.16601 -0.51107,-0.16601 -0.2832,0 -0.47201,0.18229 -0.18554,0.18229 -0.18554,0.45898 0,0.22787 0.15299,0.36459 0.14974,0.13997 0.60547,0.32552 l 0.29948,0.1237 q 0.49154,0.20182 0.68685,0.41666 0.19206,0.2181 0.19206,0.5599 0,0.472 -0.37761,0.77148 -0.37435,0.29623 -0.97656,0.29623 -0.63477,0 -1.20443,-0.26368 z"
             id="path167"
             style="fill:#6f8a91;stroke-width:0.643966" />
          <path
             d="m 135.56921,319.62194 q -0.50781,0.20183 -0.99284,0.20183 -0.77474,0 -1.25651,-0.51758 -0.48177,-0.51758 -0.48177,-1.34766 0,-0.83008 0.46224,-1.32812 0.4655,-0.50131 1.23698,-0.50131 0.39388,0 1.0319,0.15951 v 0.8431 h -0.40039 l -0.003,-0.0586 q 0,-0.72916 -0.64128,-0.72916 -0.4655,0 -0.74219,0.42317 -0.27344,0.42318 -0.27344,1.14584 0,0.73893 0.32553,1.16536 0.32552,0.42644 0.88541,0.42644 0.48177,0 0.84961,-0.16276 z"
             style="font-style:normal;font-variant:normal;font-weight:normal;font-stretch:normal;font-size:6.66667px;font-family:'Lucida Bright';-inkscape-font-specification:'Lucida Bright';fill:#6f8a91;stroke-width:0.643966"
             id="path169" />
          <path
             d="m 137.2782,316.20723 v 2.69206 q 0,0.44271 0.0716,0.52734 0.0716,0.0846 0.47201,0.11068 l 0.0618,0.003 v 0.20183 h -1.84896 v -0.20183 l 0.0619,-0.003 q 0.39388,-0.026 0.46549,-0.11068 0.0749,-0.0879 0.0749,-0.52734 v -1.84896 q 0,-0.43946 -0.0749,-0.52409 -0.0716,-0.0846 -0.46549,-0.11393 l -0.0619,-0.003 v -0.20182 z m -0.64128,-0.64128 v -0.64127 h 0.64128 v 0.64127 z"
             style="font-style:normal;font-variant:normal;font-weight:normal;font-stretch:normal;font-size:6.66667px;font-family:'Lucida Bright';-inkscape-font-specification:'Lucida Bright';fill:#6f8a91;stroke-width:0.643966"
             id="path171" />
          <path
             d="m 141.14864,319.58288 q -0.61198,0.24089 -1.11654,0.24089 -0.77799,0 -1.26627,-0.52409 -0.48503,-0.52409 -0.48503,-1.36068 0,-0.79427 0.4362,-1.30208 0.4362,-0.50782 1.11979,-0.50782 0.63151,0 0.97005,0.42644 0.3418,0.42643 0.3418,1.21744 v 0.0618 h -2.1582 q 0,0.82357 0.28646,1.24349 0.28971,0.41993 0.85612,0.41993 0.5957,0 1.01562,-0.24414 z m -2.14518,-1.94987 h 1.46484 l 0.003,-0.14323 q 0,-0.61523 -0.15951,-0.88867 -0.1595,-0.27344 -0.52083,-0.27344 -0.36133,0 -0.57617,0.35482 -0.21159,0.35482 -0.21159,0.95052 z"
             style="font-style:normal;font-variant:normal;font-weight:normal;font-stretch:normal;font-size:6.66667px;font-family:'Lucida Bright';-inkscape-font-specification:'Lucida Bright';fill:#6f8a91;stroke-width:0.643966"
             id="path173" />
          <path
             d="m 142.85112,316.87129 q 0.24414,-0.37109 0.56315,-0.55664 0.31901,-0.18555 0.71289,-0.18555 0.45573,0 0.71614,0.29948 0.25717,0.29948 0.25717,0.82357 v 1.64714 q 0.0228,0.48502 0.0749,0.54687 0.0521,0.0618 0.46875,0.0911 l 0.0586,0.003 v 0.20183 h -1.8457 v -0.20183 l 0.0586,-0.003 q 0.41667,-0.0293 0.46875,-0.0911 0.0521,-0.0618 0.0749,-0.54687 v -1.54623 q 0,-0.45573 -0.12044,-0.63151 -0.11719,-0.17903 -0.42318,-0.17903 -0.21484,0 -0.48177,0.13671 -0.26693,0.13347 -0.58268,0.40691 v 1.81315 q 0,0.44271 0.0716,0.52734 0.0716,0.0846 0.47201,0.11068 l 0.0618,0.003 v 0.20183 h -1.84896 v -0.20183 l 0.0618,-0.003 q 0.39388,-0.026 0.46549,-0.11068 0.0749,-0.0879 0.0749,-0.52734 v -1.84896 q 0,-0.43946 -0.0749,-0.52409 -0.0716,-0.0846 -0.46549,-0.11393 l -0.0618,-0.003 v -0.20182 h 1.24349 z"
             style="font-style:normal;font-variant:normal;font-weight:normal;font-stretch:normal;font-size:6.66667px;font-family:'Lucida Bright';-inkscape-font-specification:'Lucida Bright';fill:#6f8a91;stroke-width:0.643966"
             id="path175" />
          <path
             d="m 146.14864,319.74239 v -0.20183 l 2.23959,-3.13151 h -1.1556 q -0.47852,0 -0.5599,0.0358 -0.0814,0.0326 -0.0814,0.23437 0,0.13672 -0.007,0.23438 l -0.003,0.0684 h -0.3418 v -0.77474 h 2.89388 v 0.20182 l -2.21354,3.09245 h 1.29232 q 0.51106,0 0.58593,-0.0553 0.0781,-0.0586 0.0781,-0.43945 l 0.003,-0.0781 h 0.3418 v 0.81381 z"
             style="font-style:normal;font-variant:normal;font-weight:normal;font-stretch:normal;font-size:6.66667px;font-family:'Lucida Bright';-inkscape-font-specification:'Lucida Bright';fill:#6f8a91;stroke-width:0.643966"
             id="path177" />
          <path
             d="m 152.1838,319.25736 q -0.57291,0.56641 -1.13281,0.56641 -0.44922,0 -0.7487,-0.28321 -0.29948,-0.28645 -0.29948,-0.71614 0,-0.5013 0.39063,-0.81381 0.44596,-0.35807 1.51042,-0.35807 h 0.13346 v -0.43945 q 0,-0.83659 -0.63477,-0.83659 -0.29622,0 -0.52409,0.18229 -0.13346,0.11068 -0.16927,0.45248 l -0.003,0.0618 h -0.4362 v -0.64778 q 0.67708,-0.29623 1.25651,-0.29623 1.15235,0 1.15235,1.05795 v 1.57552 q 0,0.42318 0.0716,0.5957 0.0749,0.17253 0.25716,0.17253 0.0651,0 0.17253,-0.0293 l 0.0195,0.24089 q -0.23112,0.0814 -0.41341,0.0814 -0.47526,0 -0.60222,-0.56641 z m -0.14648,-0.0716 v -1.33139 h -0.14974 q -0.56641,0 -0.88542,0.23438 -0.31901,0.23438 -0.31901,0.64453 0,0.30599 0.19857,0.50781 0.19857,0.20183 0.49479,0.20183 0.27995,0 0.66081,-0.25716 z"
             style="font-style:normal;font-variant:normal;font-weight:normal;font-stretch:normal;font-size:6.66667px;font-family:'Lucida Bright';-inkscape-font-specification:'Lucida Bright';fill:#6f8a91;stroke-width:0.643966"
             id="path179" />
          <path
             d="m 132.20984,327.95528 q -0.50782,0.20182 -0.99284,0.20182 -0.77474,0 -1.25651,-0.51757 -0.48178,-0.51758 -0.48178,-1.34766 0,-0.83008 0.46224,-1.32813 0.4655,-0.5013 1.23698,-0.5013 0.39388,0 1.03191,0.15951 v 0.8431 h -0.4004 l -0.003,-0.0586 q 0,-0.72917 -0.64128,-0.72917 -0.46549,0 -0.74218,0.42318 -0.27344,0.42318 -0.27344,1.14584 0,0.73893 0.32552,1.16536 0.32552,0.42643 0.88542,0.42643 0.48177,0 0.84961,-0.16276 z"
             style="font-style:normal;font-variant:normal;font-weight:normal;font-stretch:normal;font-size:6.66667px;font-family:'Lucida Bright';-inkscape-font-specification:'Lucida Bright';fill:#6f8a91;stroke-width:0.643966"
             id="path181" />
          <path
             d="m 134.56335,328.1571 q -0.78125,0 -1.23372,-0.49479 -0.45248,-0.49804 -0.45248,-1.35417 0,-0.85612 0.45248,-1.35091 0.45247,-0.49479 1.23372,-0.49479 0.78451,0 1.23373,0.49479 0.45247,0.49479 0.45247,1.35091 0,0.85613 -0.45247,1.35417 -0.45248,0.49479 -1.23373,0.49479 z m 0,-0.20182 q 0.43294,0 0.7194,-0.46549 0.28646,-0.46875 0.28646,-1.18165 0,-0.70638 -0.28646,-1.17513 -0.28646,-0.472 -0.7194,-0.472 -0.42969,0 -0.71614,0.472 -0.28646,0.46875 -0.28646,1.17513 0,0.7129 0.2832,1.18165 0.28646,0.46549 0.7194,0.46549 z"
             style="font-style:normal;font-variant:normal;font-weight:normal;font-stretch:normal;font-size:6.66667px;font-family:'Lucida Bright';-inkscape-font-specification:'Lucida Bright';fill:#6f8a91;stroke-width:0.643966"
             id="path183" />
          <path
             d="m 137.94226,325.20463 q 0.27995,-0.3711 0.58268,-0.55664 0.30599,-0.18555 0.63802,-0.18555 0.38737,0 0.61524,0.18555 0.22786,0.18554 0.29297,0.55664 0.30924,-0.3711 0.625,-0.55664 0.31575,-0.18555 0.63476,-0.18555 0.95052,0 0.95052,1.04167 v 1.72851 q 0,0.44271 0.0684,0.52735 0.0716,0.0814 0.47201,0.11068 l 0.0618,0.003 v 0.20182 h -1.84896 v -0.20182 l 0.0619,-0.003 q 0.40039,-0.0293 0.46875,-0.11068 0.0716,-0.0846 0.0716,-0.52735 v -1.61132 q 0,-0.41993 -0.11067,-0.57943 -0.10743,-0.16276 -0.38737,-0.16276 -0.23438,0 -0.49154,0.13672 -0.25391,0.13672 -0.53385,0.41015 v 1.80664 q 0,0.43946 0.0716,0.52735 0.0716,0.0846 0.46875,0.11068 l 0.0618,0.003 v 0.20182 h -1.84896 v -0.20182 l 0.0619,-0.003 q 0.40039,-0.026 0.46875,-0.11068 0.0716,-0.0846 0.0716,-0.52735 v -1.61132 q 0,-0.41342 -0.10742,-0.57618 -0.10742,-0.16601 -0.3776,-0.16601 -0.25391,0 -0.51433,0.13672 -0.26041,0.13672 -0.52734,0.41015 v 1.80664 q 0,0.44271 0.0716,0.52735 0.0716,0.0846 0.47201,0.11068 l 0.0618,0.003 v 0.20182 h -1.84896 v -0.20182 l 0.0618,-0.003 q 0.39388,-0.026 0.46549,-0.11068 0.0749,-0.0879 0.0749,-0.52735 v -1.84895 q 0,-0.43946 -0.0749,-0.52409 -0.0716,-0.0846 -0.46549,-0.11394 l -0.0618,-0.003 v -0.20182 h 1.24349 z"
             style="font-style:normal;font-variant:normal;font-weight:normal;font-stretch:normal;font-size:6.66667px;font-family:'Lucida Bright';-inkscape-font-specification:'Lucida Bright';fill:#6f8a91;stroke-width:0.643966"
             id="path185" />
          <path
             d="m 144.88888,328.1571 q -0.78125,0 -1.23373,-0.49479 -0.45247,-0.49804 -0.45247,-1.35417 0,-0.85612 0.45247,-1.35091 0.45248,-0.49479 1.23373,-0.49479 0.7845,0 1.23372,0.49479 0.45248,0.49479 0.45248,1.35091 0,0.85613 -0.45248,1.35417 -0.45247,0.49479 -1.23372,0.49479 z m 0,-0.20182 q 0.43294,0 0.7194,-0.46549 0.28646,-0.46875 0.28646,-1.18165 0,-0.70638 -0.28646,-1.17513 -0.28646,-0.472 -0.7194,-0.472 -0.42969,0 -0.71615,0.472 -0.28646,0.46875 -0.28646,1.17513 0,0.7129 0.28321,1.18165 0.28645,0.46549 0.7194,0.46549 z"
             style="font-style:normal;font-variant:normal;font-weight:normal;font-stretch:normal;font-size:6.66667px;font-family:'Lucida Bright';-inkscape-font-specification:'Lucida Bright';fill:#6f8a91;stroke-width:0.643966"
             id="path187" />
          <path
             d="m 149.81401,328.07572 v -0.66406 q -0.23438,0.3711 -0.54688,0.5599 -0.30924,0.18554 -0.69335,0.18554 -0.59896,0 -0.95378,-0.472 -0.35482,-0.47526 -0.35482,-1.27279 0,-0.88542 0.4069,-1.41601 0.4069,-0.53386 1.08073,-0.53386 0.30925,0 0.57292,0.12044 0.26693,0.12045 0.48828,0.36133 v -1.16536 q 0,-0.44597 -0.0716,-0.52735 -0.0684,-0.0846 -0.46875,-0.11067 l -0.0618,-0.003 v -0.20182 h 1.24674 v 4.29687 q 0,0.44271 0.0684,0.52735 0.0716,0.0846 0.47201,0.11068 l 0.0618,0.003 v 0.20182 z m 0,-2.88086 q -0.25065,-0.1888 -0.49479,-0.27994 -0.24414,-0.0944 -0.48177,-0.0944 -0.44597,0 -0.67058,0.35482 -0.22135,0.35156 -0.22135,1.0612 0,0.75195 0.21484,1.12956 0.2181,0.37435 0.65105,0.37435 0.29296,0 0.54362,-0.13672 0.25065,-0.13998 0.45898,-0.41667 z"
             style="font-style:normal;font-variant:normal;font-weight:normal;font-stretch:normal;font-size:6.66667px;font-family:'Lucida Bright';-inkscape-font-specification:'Lucida Bright';fill:#6f8a91;stroke-width:0.643966"
             id="path189" />
          <path
             d="m 153.69422,327.5907 q -0.57292,0.5664 -1.13281,0.5664 -0.44922,0 -0.7487,-0.2832 -0.29948,-0.28646 -0.29948,-0.71615 0,-0.5013 0.39063,-0.8138 0.44596,-0.35807 1.51041,-0.35807 h 0.13347 v -0.43945 q 0,-0.83659 -0.63477,-0.83659 -0.29622,0 -0.52409,0.18229 -0.13346,0.11068 -0.16927,0.45247 l -0.003,0.0618 h -0.4362 v -0.64778 q 0.67708,-0.29623 1.25651,-0.29623 1.15234,0 1.15234,1.05794 v 1.57553 q 0,0.42317 0.0716,0.5957 0.0749,0.17253 0.25716,0.17253 0.0651,0 0.17253,-0.0293 l 0.0195,0.24088 q -0.23112,0.0814 -0.41341,0.0814 -0.47527,0 -0.60222,-0.5664 z m -0.14648,-0.0716 v -1.3314 H 153.398 q -0.56641,0 -0.88542,0.23438 -0.31901,0.23437 -0.31901,0.64453 0,0.30599 0.19857,0.50781 0.19857,0.20182 0.49479,0.20182 0.27995,0 0.66081,-0.25716 z"
             style="font-style:normal;font-variant:normal;font-weight:normal;font-stretch:normal;font-size:6.66667px;font-family:'Lucida Bright';-inkscape-font-specification:'Lucida Bright';fill:#6f8a91;stroke-width:0.643966"
             id="path191" />
        </g>
      </g>
    </g>
  </g>
</svg>
